# Blender 4.2.7 LTS
# www.blender.org
mtllib ailerons2.mtl
o right
v -5.428339 -77.789467 1.399075
v -3.268206 -110.503265 -0.204267
v -13.107378 -77.717148 0.881219
v -5.039751 -110.485138 -0.323696
v -20.181406 -77.772324 0.355020
v -11.448824 -110.474464 -0.866467
v -17.708658 -77.794357 0.572873
v -6.100405 -110.467941 -0.393814
v -0.884996 -110.466415 -0.073691
v 0.139799 -77.780434 1.701720
v -16.312258 -77.888046 -0.052226
v -10.748278 -110.508667 -0.940862
v -5.063540 -110.637009 -0.943788
v -13.301203 -77.878159 -0.051656
v -3.529436 -110.733482 -0.952695
v -6.407419 -77.973495 -0.082284
v -0.806978 -110.645958 -0.993061
v -0.067820 -78.016731 -0.184014
vn -0.0793 -0.0576 0.9952
vn -0.0878 -0.0606 0.9943
vn -0.0749 -0.0560 0.9956
vn -0.0605 -0.0529 0.9968
vn -0.0541 -0.0524 0.9972
vn -0.0612 -0.0529 0.9967
vn -0.0667 -0.0531 0.9964
vn -0.0673 -0.0532 0.9963
vn -0.1051 0.0092 -0.9944
vn -0.0583 0.0172 -0.9982
vn -0.0457 0.0194 -0.9988
vn -0.0096 0.0257 -0.9996
vn -0.0024 0.0266 -0.9996
vn -0.0017 0.0268 -0.9996
vn -0.0159 0.0252 -0.9996
vn -0.0103 0.0256 -0.9996
vn 0.0138 0.9909 -0.1341
vn 0.0038 0.9853 -0.1708
vn 0.0064 0.9857 -0.1682
vn 0.9962 -0.0248 0.0831
vn 0.9943 -0.0254 -0.1031
vn 0.9940 -0.0254 -0.1063
vn -0.0420 -0.9676 0.2491
vn -0.0235 -0.9672 0.2530
vn -0.0438 -0.9693 0.2420
vn -0.0881 -0.0607 0.9943
vn -0.0538 -0.0525 0.9972
vn -0.1044 0.0093 -0.9945
vn -0.0156 0.0251 -0.9996
vn 0.0184 0.9940 -0.1079
vn 0.0146 0.9931 -0.1163
vn -0.0030 0.9877 -0.1561
vn 0.0088 0.9916 -0.1288
vn 0.0052 0.9922 -0.1249
vn 0.0051 0.9921 -0.1251
vn 0.9957 -0.0248 0.0893
vn -0.0208 -0.9683 0.2490
vn -0.0209 -0.9682 0.2493
vn -0.0078 -0.9578 0.2873
vn 0.0110 -0.9774 0.2110
vn 0.0068 -0.9599 0.2801
vn 0.0047 -0.9814 0.1920
vt 0.783799 0.870063
vt 0.799811 0.946526
vt 0.786485 0.946518
vt 0.779401 0.946604
vt 0.739140 0.870070
vt 0.753081 0.870069
vt 0.772312 0.869866
vt 0.783838 0.946554
vt 0.284008 0.575062
vt 0.301047 0.508414
vt 0.285536 0.575135
vt 0.322746 0.508632
vt 0.297961 0.575447
vt 0.307628 0.508420
vt 0.336601 0.508714
vt 0.301326 0.575648
vt 0.031940 0.031457
vt 0.030817 0.050399
vt 0.028268 0.049726
vt 0.022619 0.103294
vt 0.017500 0.014120
vt 0.022619 0.013196
vt 0.033928 0.030831
vt 0.034123 0.027911
vt 0.035686 0.030777
vt 0.789960 0.870008
vt 0.773434 0.946527
vt 0.292606 0.508160
vt 0.307276 0.575466
vt 0.028661 0.069247
vt 0.028435 0.062419
vt 0.030369 0.058675
vt 0.028000 0.028545
vt 0.028000 0.013196
vt 0.033171 0.014049
vt 0.020111 0.103921
vt 0.035489 0.013196
vt 0.035697 0.015126
vt 0.035745 0.035004
vt 0.035745 0.042491
vt 0.033588 0.035706
vt 0.033171 0.042262
s 1
usemtl F-15
f 7/1/1 6/2/2 8/3/3
f 2/4/4 10/5/5 1/6/6
f 3/7/7 8/3/3 4/8/8
f 1/6/6 4/8/8 2/4/4
f 6/9/9 11/10/10 12/11/11
f 16/12/12 13/13/13 14/14/14
f 12/11/11 14/14/14 13/13/13
f 18/15/15 15/16/16 16/12/12
f 16/17/17 14/18/18 3/19/19
f 9/20/20 18/21/21 10/22/22
f 4/23/23 8/24/24 13/25/25
f 7/1/1 5/26/26 6/2/2
f 2/4/4 9/27/27 10/5/5
f 3/7/7 7/1/1 8/3/3
f 1/6/6 3/7/7 4/8/8
f 6/9/9 5/28/28 11/10/10
f 16/12/12 15/16/16 13/13/13
f 12/11/11 11/10/10 14/14/14
f 18/15/15 17/29/29 15/16/16
f 5/30/30 7/31/31 11/32/32
f 7/31/31 3/19/19 11/32/32
f 3/19/19 1/33/33 16/17/17
f 1/33/33 10/34/34 18/35/35
f 16/17/17 1/33/33 18/35/35
f 14/18/18 11/32/32 3/19/19
f 9/20/20 17/36/36 18/21/21
f 8/24/24 6/37/37 12/38/38
f 13/25/25 15/39/39 4/23/23
f 15/39/39 17/40/40 2/41/41
f 8/24/24 12/38/38 13/25/25
f 9/42/42 2/41/41 17/40/40
f 2/41/41 4/23/23 15/39/39
o left
v -3.129244 109.396973 -0.916918
v -6.148912 77.111420 -0.059168
v -11.298693 109.228409 -0.819618
v -20.156801 77.571091 0.362790
v -16.217318 77.455246 -0.040216
v -10.464235 109.206726 -0.905124
v -0.050737 109.348167 -0.964132
v -4.888796 109.346565 -0.908375
v -13.235689 77.396591 -0.038323
v 0.480017 76.894791 -0.157343
v -2.881960 109.305397 -0.145136
v -5.331079 77.491013 1.414037
v -6.062029 109.282898 -0.358434
v -17.701540 77.578438 0.579506
v -4.869310 109.275108 -0.278834
v -13.077364 77.508797 0.889202
v -0.222765 109.294876 -0.000413
v 0.270803 77.465218 1.719024
vn -0.0096 -0.0257 -0.9996
vn -0.0024 -0.0266 -0.9996
vn -0.0103 -0.0256 -0.9996
vn -0.0453 -0.0190 -0.9988
vn -0.0017 -0.0268 -0.9996
vn -0.0561 -0.0170 -0.9983
vn -0.0156 -0.0251 -0.9996
vn -0.1021 -0.0086 -0.9947
vn -0.1020 -0.0086 -0.9947
vn -0.0540 0.0530 0.9971
vn -0.0606 0.0535 0.9967
vn -0.0610 0.0536 0.9967
vn -0.0747 0.0569 0.9956
vn -0.0665 0.0538 0.9963
vn -0.0671 0.0539 0.9963
vn -0.0793 0.0586 0.9951
vn -0.0882 0.0618 0.9942
vn -0.0879 0.0617 0.9942
vn -0.0074 0.9929 0.1187
vn -0.0176 0.9942 0.1062
vn -0.0147 0.9933 0.1148
vn -0.0285 -0.9918 0.1248
vn -0.0234 -0.9665 0.2556
vn -0.0301 -0.9903 0.1354
vn 0.9844 0.0246 0.1742
vn 0.9941 0.0190 0.1063
vn 0.9943 0.0189 0.1051
vn -0.0157 -0.0251 -0.9996
vn -0.0541 0.0530 0.9971
vn 0.0050 0.9841 -0.1776
vn -0.0207 0.9975 0.0676
vn 0.0063 0.9822 -0.1876
vn -0.0000 0.9938 0.1112
vn 0.0009 0.9985 0.0554
vn 0.0042 0.9978 0.0664
vn -0.0215 -0.9585 0.2843
vn -0.0243 -0.9639 0.2651
vn -0.0201 -0.9572 0.2887
vn -0.0137 -0.9865 0.1633
vn -0.0226 -0.9899 0.1402
vn -0.0118 -0.9858 0.1676
vn 0.9839 0.0248 0.1770
vt 0.323312 0.191361
vt 0.298343 0.125471
vt 0.302202 0.125364
vt 0.286157 0.125702
vt 0.307771 0.190795
vt 0.301254 0.190645
vt 0.337800 0.191810
vt 0.284336 0.125661
vt 0.292660 0.190426
vt 0.738811 0.506680
vt 0.778433 0.432214
vt 0.752838 0.506644
vt 0.786388 0.432271
vt 0.772237 0.506639
vt 0.783410 0.432295
vt 0.783781 0.506456
vt 0.799435 0.432402
vt 0.789898 0.506475
vt 0.028091 0.091734
vt 0.028084 0.086891
vt 0.029809 0.086936
vt 0.027912 0.032262
vt 0.027866 0.051779
vt 0.025353 0.032665
vt 0.012279 0.013196
vt 0.017500 0.101100
vt 0.012279 0.102544
vt 0.308930 0.125467
vt 0.771775 0.432228
vt 0.028000 0.071545
vt 0.029574 0.083654
vt 0.028225 0.069247
vt 0.030208 0.092404
vt 0.030643 0.099721
vt 0.028000 0.100208
vt 0.028000 0.070035
vt 0.023646 0.053967
vt 0.022619 0.069374
vt 0.026324 0.019946
vt 0.028000 0.024054
vt 0.027008 0.013196
vt 0.014945 0.013408
s 1
usemtl F-15
f 20/43/43 26/44/44 19/45/45
f 24/46/46 27/47/47 23/48/48
f 19/45/45 28/49/49 20/43/43
f 21/50/50 23/48/48 22/51/51
f 36/52/52 29/53/53 30/54/54
f 31/55/55 34/56/56 33/57/57
f 30/54/54 33/57/57 34/56/56
f 32/58/58 21/59/59 22/60/60
f 19/61/61 26/62/62 33/63/63
f 27/64/64 20/65/65 34/66/66
f 25/67/67 36/68/68 28/69/69
f 20/43/43 27/47/47 26/44/44
f 24/46/46 26/44/44 27/47/47
f 19/45/45 25/70/70 28/49/49
f 21/50/50 24/46/46 23/48/48
f 36/52/52 35/71/71 29/53/53
f 31/55/55 32/58/58 34/56/56
f 30/54/54 29/53/53 33/57/57
f 32/58/58 31/55/55 21/59/59
f 26/62/62 24/72/72 31/73/73
f 24/72/72 21/74/74 31/73/73
f 31/73/73 33/63/63 26/62/62
f 33/63/63 29/75/75 19/61/61
f 29/75/75 35/76/76 25/77/77
f 19/61/61 29/75/75 25/77/77
f 20/65/65 28/78/78 30/79/79
f 28/78/78 36/80/80 30/79/79
f 30/79/79 34/66/66 20/65/65
f 34/66/66 32/81/81 23/82/82
f 32/81/81 22/83/83 23/82/82
f 23/82/82 27/64/64 34/66/66
f 25/67/67 35/84/84 36/68/68
