# Blender 4.2.7 LTS
# www.blender.org
mtllib cube.mtl
o Cube
v -1.000000 -1.000000 1.000000
v -1.000000 1.000000 1.000000
v -1.000000 -1.000000 -1.000000
v -1.000000 1.000000 -1.000000
v 1.000000 -1.000000 1.000000
v 1.000000 1.000000 1.000000
v 1.000000 -1.000000 -1.000000
v 1.000000 1.000000 -1.000000
vn -1.0000 -0.0000 -0.0000
vn -0.0000 -0.0000 -1.0000
vn 1.0000 -0.0000 -0.0000
vn -0.0000 -0.0000 1.0000
vn -0.0000 -1.0000 -0.0000
vn -0.0000 1.0000 -0.0000
vt 0.025808 -1.873844
vt 0.982005 -1.873844
vt 0.982005 -0.917647
vt 0.025808 -0.917647
vt 0.982005 0.038550
vt 0.025808 0.038550
vt 0.982005 0.994748
vt 0.025808 0.994748
vt 0.982005 1.950945
vt 0.025808 1.950945
vt -0.930390 0.038550
vt -0.930390 0.994748
vt 1.938202 0.038550
vt 1.938202 0.994748
s 0
f 1/1/1 2/2/1 4/3/1 3/4/1
f 3/4/2 4/3/2 8/5/2 7/6/2
f 7/6/3 8/5/3 6/7/3 5/8/3
f 5/8/4 6/7/4 2/9/4 1/10/4
f 3/11/5 7/6/5 5/8/5 1/12/5
f 8/5/6 4/13/6 2/14/6 6/7/6
