# Blender 4.2.7 LTS
# www.blender.org
mtllib elevator4.mtl
o eleavtor
v -40.896656 77.895889 -0.263443
v -34.914940 48.810150 -0.263462
v -33.939671 83.575027 -0.780912
v -11.638206 51.543575 -0.780933
v -26.332460 86.626892 -0.263424
v 17.132591 54.621975 -0.263448
v -1.592829 37.027245 -0.263464
v -24.837046 35.196117 0.331880
v -26.527504 48.810146 0.331890
v -14.434029 51.172035 0.331893
v -32.541752 83.070801 0.331916
v -37.873280 76.622040 0.331913
v -6.404230 37.027248 0.535016
v -0.324958 53.905457 0.331897
v 10.533178 38.592991 0.694501
v 8.452584 53.905457 -0.263451
v 4.909081 54.621983 0.331906
v -27.405245 84.583481 0.331916
v -21.943697 86.839195 -0.263430
v -24.739519 84.344612 0.331923
v 26.430258 38.592987 -0.263450
v -32.086605 35.196125 -0.263469
v -40.896679 -77.882584 -0.263553
v -33.939678 -83.561722 -0.781029
v -11.638222 -51.530285 -0.780999
v -26.332472 -86.613617 -0.263546
v 8.452567 -53.892178 -0.263516
v -0.324975 -53.892178 0.331826
v -12.483452 -51.530289 0.331825
v 17.132591 -54.608707 -0.263526
v 4.909065 -54.608704 0.331829
v -27.405256 -84.570175 0.331798
v -32.541759 -83.057495 0.331792
v -37.873302 -76.608749 0.331793
v -26.527504 -48.770332 0.331820
v -34.914940 -48.770332 -0.263528
v -32.086613 -35.182835 -0.263516
v -21.943724 -86.825905 -0.263547
v -24.739531 -84.304802 0.331794
v -6.404242 -37.013973 0.331833
v 10.533182 -38.579712 0.331842
v 26.430246 -38.579720 -0.263510
v -24.837042 -35.182838 0.331831
v -1.592840 -37.013969 -0.263511
vn -0.0636 -0.0131 -0.9979
vn 0.0013 0.0104 -0.9999
vn -0.0243 -0.0096 -0.9997
vn 0.0083 -0.0055 -1.0000
vn 0.0334 0.0245 -0.9991
vn 0.0083 0.0011 -1.0000
vn -0.0000 -0.0000 -1.0000
vn -0.0132 -0.0151 -0.9998
vn 0.0107 -0.0171 -0.9998
vn -0.0818 -0.0170 0.9965
vn -0.0406 -0.0044 0.9992
vn -0.0723 -0.0132 0.9973
vn -0.0343 -0.0061 0.9994
vn -0.0025 0.0039 1.0000
vn -0.2250 0.3409 0.9128
vn -0.1320 0.0360 0.9906
vn -0.1445 0.0792 0.9863
vn -0.0089 0.0121 0.9999
vn 0.0091 0.0050 0.9999
vn 0.0436 -0.3657 0.9297
vn 0.0620 -0.0143 0.9980
vn 0.0566 -0.2556 0.9651
vn 0.0536 -0.0125 0.9985
vn 0.0480 -0.2023 0.9781
vn -0.0357 0.1704 0.9847
vn -0.0518 0.3233 0.9449
vn -0.3874 0.4633 0.7970
vn 0.0727 0.1597 0.9845
vn 0.0301 0.1063 0.9939
vn 0.0749 -0.8816 0.4660
vn 0.0577 -0.9358 0.3478
vn 0.0564 -0.9388 0.3397
vn 0.0666 -0.5807 -0.8114
vn -0.0636 0.0131 -0.9979
vn -0.0242 0.0096 -0.9997
vn 0.0013 -0.0104 -0.9999
vn 0.0083 0.0055 -1.0000
vn 0.0334 -0.0245 -0.9991
vn 0.0083 -0.0011 -1.0000
vn -0.0132 0.0152 -0.9998
vn 0.0107 0.0171 -0.9998
vn 0.0566 0.2556 0.9651
vn 0.0448 0.0116 0.9989
vn 0.0097 0.0023 1.0000
vn 0.0299 0.2762 0.9606
vn 0.0322 0.5246 0.8507
vn -0.0000 -0.0000 1.0000
vn -0.0371 0.0067 0.9993
vn 0.0536 0.0125 0.9985
vn 0.0480 0.2023 0.9781
vn -0.0356 -0.1704 0.9847
vn -0.2250 -0.3409 0.9128
vn -0.0518 -0.3233 0.9449
vn -0.3874 -0.4633 0.7970
vn -0.1319 -0.0360 0.9906
vn -0.1445 -0.0792 0.9863
vn -0.0343 0.0061 0.9994
vn -0.0723 0.0132 0.9973
vn -0.0818 0.0170 0.9965
vn 0.0724 -0.1588 0.9846
vn 0.0307 -0.1042 0.9941
vn 0.0720 0.7984 0.5978
vn 0.0632 0.6359 -0.7692
vn 0.0539 0.8983 0.4360
vt 0.113399 0.189775
vt 0.128667 0.178160
vt 0.126616 0.249340
vt 0.177433 0.243693
vt 0.145302 0.171873
vt 0.221413 0.238898
vt 0.240441 0.237406
vt 0.154987 0.171447
vt 0.132655 0.277152
vt 0.199423 0.273422
vt 0.260836 0.270119
vt 0.972841 0.605667
vt 0.954725 0.605667
vt 0.979905 0.573806
vt 0.958940 0.573806
vt 0.928633 0.568265
vt 0.973980 0.493675
vt 0.987311 0.508700
vt 0.994945 0.505716
vt 0.908579 0.601405
vt 0.893426 0.561872
vt 0.866194 0.597675
vt 0.826315 0.597675
vt 0.871321 0.561872
vt 0.849673 0.560167
vt 0.880323 0.560167
vt 0.961105 0.490052
vt 0.958485 0.485257
vt 0.977512 0.492397
vt 0.947433 0.484831
vt 0.954497 0.490692
vt 0.896616 0.601405
vt 0.188941 0.273422
vt 0.148606 0.277152
vt 0.113399 0.508380
vt 0.126616 0.448922
vt 0.128667 0.519995
vt 0.177433 0.454462
vt 0.145302 0.526282
vt 0.221413 0.459364
vt 0.240441 0.460749
vt 0.154987 0.526708
vt 0.132655 0.421110
vt 0.199423 0.424840
vt 0.260836 0.428036
vt 0.871321 0.814092
vt 0.826315 0.778289
vt 0.893426 0.814092
vt 0.866194 0.778289
vt 0.908579 0.774666
vt 0.923733 0.808551
vt 0.954725 0.770297
vt 0.849673 0.815797
vt 0.880323 0.815797
vt 0.961105 0.885912
vt 0.973980 0.882395
vt 0.958485 0.890707
vt 0.977512 0.883568
vt 0.987311 0.867264
vt 0.994945 0.870248
vt 0.958940 0.802158
vt 0.979905 0.802158
vt 0.972841 0.770297
vt 0.947433 0.891240
vt 0.954497 0.885379
vt 0.896616 0.774666
vt 0.148606 0.421110
vt 0.188941 0.424840
s 1
usemtl F-15
f 1/1/1 3/2/2 2/3/3
f 2/3/3 3/2/2 4/4/4
f 3/2/2 5/5/5 4/4/4
f 4/4/4 5/5/5 16/6/6
f 16/6/6 5/5/5 6/7/7
f 5/5/5 19/8/7 6/7/7
f 2/3/3 4/4/4 22/9/8
f 22/9/8 4/4/4 7/10/9
f 4/4/4 16/6/6 7/10/9
f 7/10/9 16/6/6 21/11/7
f 22/12/10 8/13/11 2/14/12
f 2/14/12 8/13/11 9/15/13
f 8/13/11 10/16/14 9/15/13
f 10/16/14 11/17/15 9/15/13
f 11/17/15 12/18/16 9/15/13
f 12/18/16 1/19/17 9/15/13
f 9/15/13 1/19/17 2/14/12
f 8/13/11 13/20/18 10/16/14
f 10/16/14 13/20/18 14/21/19
f 13/20/18 15/22/20 14/21/19
f 15/22/20 21/23/21 14/21/19
f 14/21/19 21/23/21 16/24/22
f 6/25/23 17/26/24 16/24/22
f 16/24/22 17/26/24 14/21/19
f 17/26/24 18/27/25 14/21/19
f 14/21/19 18/27/25 10/16/14
f 10/16/14 18/27/25 11/17/15
f 18/27/25 5/28/26 11/17/15
f 5/28/26 3/29/27 11/17/15
f 11/17/15 3/29/27 12/18/16
f 3/29/27 1/19/17 12/18/16
f 5/28/26 18/27/25 19/30/28
f 18/27/25 20/31/29 19/30/28
f 19/30/28 20/31/29 6/25/23
f 6/25/23 20/31/29 17/26/24
f 20/31/29 18/27/25 17/26/24
f 21/23/21 15/22/20 7/32/30
f 15/22/20 13/20/31 7/32/30
f 7/10/30 13/33/31 22/9/32
f 13/33/33 8/34/33 22/9/33
f 23/35/34 36/36/35 24/37/36
f 36/36/35 25/38/37 24/37/36
f 24/37/36 25/38/37 26/39/38
f 25/38/37 27/40/39 26/39/38
f 27/40/39 30/41/7 26/39/38
f 26/39/38 30/41/7 38/42/7
f 36/36/35 37/43/40 25/38/37
f 37/43/40 44/44/41 25/38/37
f 25/38/37 44/44/41 27/40/39
f 44/44/41 42/45/7 27/40/39
f 27/46/42 42/47/43 28/48/44
f 42/47/43 41/49/45 28/48/44
f 41/49/45 40/50/46 28/48/44
f 28/48/44 40/50/46 29/51/47
f 40/50/46 43/52/48 29/51/47
f 30/53/49 27/46/42 31/54/50
f 27/46/42 28/48/44 31/54/50
f 31/54/50 28/48/44 32/55/51
f 28/48/44 29/51/47 32/55/51
f 29/51/47 33/56/52 32/55/51
f 32/55/51 33/56/52 26/57/53
f 26/57/53 33/56/52 24/58/54
f 33/56/52 34/59/55 24/58/54
f 24/58/54 34/59/55 23/60/56
f 23/60/56 34/59/55 35/61/57
f 34/59/55 33/56/52 35/61/57
f 33/56/52 29/51/47 35/61/57
f 29/51/47 43/52/48 35/61/57
f 35/61/57 43/52/48 36/62/58
f 43/52/48 37/63/59 36/62/58
f 26/57/53 38/64/60 32/55/51
f 38/64/60 39/65/61 32/55/51
f 32/55/51 39/65/61 31/54/50
f 31/54/50 39/65/61 30/53/49
f 39/65/61 38/64/60 30/53/49
f 23/60/56 35/61/57 36/62/58
f 40/50/46 41/49/45 44/66/62
f 44/66/62 41/49/45 42/47/43
f 43/67/63 40/68/63 37/43/63
f 37/43/64 40/68/46 44/44/62
