# Blender 4.2.7 LTS
# www.blender.org
mtllib elevator.mtl
o eleavtor
v -2.583724 -38.944000 -99.166199
v -2.583730 -24.401134 -96.175339
v -2.842459 -41.783569 -95.687706
v -2.842466 -25.767847 -84.536972
v -2.583716 -43.309502 -91.884102
v -2.583725 -27.307051 -70.151573
v -2.583730 -18.509684 -79.514282
v -2.286057 -17.594118 -91.136391
v -2.286054 -24.401133 -91.981621
v -2.286053 -25.582077 -85.934883
v -2.286045 -41.531456 -94.988747
v -2.286046 -38.307076 -97.654510
v -2.184490 -18.509686 -81.919983
v -2.286052 -26.948790 -78.880348
v -2.104748 -19.292557 -73.451279
v -2.583726 -26.948790 -74.491577
v -2.286048 -27.307053 -76.263329
v -2.286046 -42.287796 -92.420494
v -2.583719 -43.415657 -89.689720
v -2.286042 -42.168365 -91.087631
v -2.583724 -19.292557 -65.502739
v -2.583731 -17.594122 -94.761169
v -2.583758 38.945236 -99.166199
v -2.842495 41.784805 -95.687698
v -2.842485 25.769083 -84.536972
v -2.583754 43.310753 -91.884094
v -2.583744 26.950027 -74.491577
v -2.286073 26.950027 -78.880348
v -2.286073 25.769083 -84.959587
v -2.583749 27.308290 -70.151566
v -2.286072 27.308290 -76.263329
v -2.286082 42.289032 -92.420486
v -2.286085 41.532692 -94.988739
v -2.286085 38.308319 -97.654510
v -2.286076 24.389107 -91.981613
v -2.583749 24.389107 -96.175331
v -2.583745 17.595358 -94.761169
v -2.583754 43.416893 -89.689720
v -2.286084 42.156342 -91.087624
v -2.286071 18.510925 -81.919983
v -2.286067 19.293795 -73.451271
v -2.583744 19.293797 -65.502739
v -2.286072 17.595360 -91.136383
v -2.583744 18.510923 -79.514282
vn -0.9979 0.0131 -0.0636
vn -0.9999 -0.0104 0.0013
vn -0.9997 0.0096 -0.0243
vn -1.0000 0.0055 0.0083
vn -0.9991 -0.0245 0.0334
vn -1.0000 -0.0011 0.0083
vn -1.0000 -0.0000 -0.0000
vn -0.9998 0.0151 -0.0132
vn -0.9998 0.0171 0.0107
vn 0.9965 0.0170 -0.0818
vn 0.9992 0.0044 -0.0406
vn 0.9973 0.0132 -0.0723
vn 0.9994 0.0061 -0.0343
vn 1.0000 -0.0039 -0.0025
vn 0.9128 -0.3409 -0.2250
vn 0.9906 -0.0360 -0.1320
vn 0.9863 -0.0792 -0.1445
vn 0.9999 -0.0121 -0.0089
vn 0.9999 -0.0050 0.0091
vn 0.9297 0.3657 0.0436
vn 0.9980 0.0143 0.0620
vn 0.9651 0.2556 0.0566
vn 0.9985 0.0125 0.0536
vn 0.9781 0.2023 0.0480
vn 0.9847 -0.1704 -0.0357
vn 0.9449 -0.3233 -0.0518
vn 0.7970 -0.4633 -0.3874
vn 0.9845 -0.1597 0.0727
vn 0.9939 -0.1063 0.0301
vn 0.4660 0.8816 0.0749
vn 0.3478 0.9358 0.0577
vn 0.3397 0.9388 0.0564
vn -0.8114 0.5807 0.0666
vn -0.9979 -0.0131 -0.0636
vn -0.9997 -0.0096 -0.0242
vn -0.9999 0.0104 0.0013
vn -1.0000 -0.0055 0.0083
vn -0.9991 0.0245 0.0334
vn -1.0000 0.0011 0.0083
vn -0.9998 -0.0152 -0.0132
vn -0.9998 -0.0171 0.0107
vn 0.9651 -0.2556 0.0566
vn 0.9989 -0.0116 0.0448
vn 1.0000 -0.0023 0.0097
vn 0.9606 -0.2762 0.0299
vn 0.8507 -0.5246 0.0322
vn 1.0000 -0.0000 -0.0000
vn 0.9993 -0.0067 -0.0371
vn 0.9985 -0.0125 0.0536
vn 0.9781 -0.2023 0.0480
vn 0.9847 0.1704 -0.0356
vn 0.9128 0.3409 -0.2250
vn 0.9449 0.3233 -0.0518
vn 0.7970 0.4633 -0.3874
vn 0.9906 0.0360 -0.1319
vn 0.9863 0.0792 -0.1445
vn 0.9994 -0.0061 -0.0343
vn 0.9973 -0.0132 -0.0723
vn 0.9965 -0.0170 -0.0818
vn 0.9846 0.1588 0.0724
vn 0.9941 0.1042 0.0307
vn 0.5978 -0.7984 0.0720
vn -0.7692 -0.6359 0.0632
vn 0.4360 -0.8983 0.0539
vt 0.113399 0.189775
vt 0.128667 0.178160
vt 0.126616 0.249340
vt 0.177433 0.243693
vt 0.145302 0.171873
vt 0.221413 0.238898
vt 0.240441 0.237406
vt 0.154987 0.171447
vt 0.132655 0.277152
vt 0.199423 0.273422
vt 0.260836 0.270119
vt 0.972841 0.605667
vt 0.954725 0.605667
vt 0.979905 0.573806
vt 0.958940 0.573806
vt 0.928633 0.568265
vt 0.973980 0.493675
vt 0.987311 0.508700
vt 0.994945 0.505716
vt 0.908579 0.601405
vt 0.893426 0.561872
vt 0.866194 0.597675
vt 0.826315 0.597675
vt 0.871321 0.561872
vt 0.849673 0.560167
vt 0.880323 0.560167
vt 0.961105 0.490052
vt 0.958485 0.485257
vt 0.977512 0.492397
vt 0.947433 0.484831
vt 0.954497 0.490692
vt 0.896616 0.601405
vt 0.188941 0.273422
vt 0.148606 0.277152
vt 0.113399 0.508380
vt 0.126616 0.448922
vt 0.128667 0.519995
vt 0.177433 0.454462
vt 0.145302 0.526282
vt 0.221413 0.459364
vt 0.240441 0.460749
vt 0.154987 0.526708
vt 0.132655 0.421110
vt 0.199423 0.424840
vt 0.260836 0.428036
vt 0.871321 0.814092
vt 0.826315 0.778289
vt 0.893426 0.814092
vt 0.866194 0.778289
vt 0.908579 0.774666
vt 0.923733 0.808551
vt 0.954725 0.770297
vt 0.849673 0.815797
vt 0.880323 0.815797
vt 0.961105 0.885912
vt 0.973980 0.882395
vt 0.958485 0.890707
vt 0.977512 0.883568
vt 0.987311 0.867264
vt 0.994945 0.870248
vt 0.958940 0.802158
vt 0.979905 0.802158
vt 0.972841 0.770297
vt 0.947433 0.891240
vt 0.954497 0.885379
vt 0.896616 0.774666
vt 0.148606 0.421110
vt 0.188941 0.424840
s 1
usemtl F-15
f 1/1/1 3/2/2 2/3/3
f 2/3/3 3/2/2 4/4/4
f 3/2/2 5/5/5 4/4/4
f 4/4/4 5/5/5 16/6/6
f 16/6/6 5/5/5 6/7/7
f 5/5/5 19/8/7 6/7/7
f 2/3/3 4/4/4 22/9/8
f 22/9/8 4/4/4 7/10/9
f 4/4/4 16/6/6 7/10/9
f 7/10/9 16/6/6 21/11/7
f 22/12/10 8/13/11 2/14/12
f 2/14/12 8/13/11 9/15/13
f 8/13/11 10/16/14 9/15/13
f 10/16/14 11/17/15 9/15/13
f 11/17/15 12/18/16 9/15/13
f 12/18/16 1/19/17 9/15/13
f 9/15/13 1/19/17 2/14/12
f 8/13/11 13/20/18 10/16/14
f 10/16/14 13/20/18 14/21/19
f 13/20/18 15/22/20 14/21/19
f 15/22/20 21/23/21 14/21/19
f 14/21/19 21/23/21 16/24/22
f 6/25/23 17/26/24 16/24/22
f 16/24/22 17/26/24 14/21/19
f 17/26/24 18/27/25 14/21/19
f 14/21/19 18/27/25 10/16/14
f 10/16/14 18/27/25 11/17/15
f 18/27/25 5/28/26 11/17/15
f 5/28/26 3/29/27 11/17/15
f 11/17/15 3/29/27 12/18/16
f 3/29/27 1/19/17 12/18/16
f 5/28/26 18/27/25 19/30/28
f 18/27/25 20/31/29 19/30/28
f 19/30/28 20/31/29 6/25/23
f 6/25/23 20/31/29 17/26/24
f 20/31/29 18/27/25 17/26/24
f 21/23/21 15/22/20 7/32/30
f 15/22/20 13/20/31 7/32/30
f 7/10/30 13/33/31 22/9/32
f 13/33/33 8/34/33 22/9/33
f 23/35/34 36/36/35 24/37/36
f 36/36/35 25/38/37 24/37/36
f 24/37/36 25/38/37 26/39/38
f 25/38/37 27/40/39 26/39/38
f 27/40/39 30/41/7 26/39/38
f 26/39/38 30/41/7 38/42/7
f 36/36/35 37/43/40 25/38/37
f 37/43/40 44/44/41 25/38/37
f 25/38/37 44/44/41 27/40/39
f 44/44/41 42/45/7 27/40/39
f 27/46/42 42/47/43 28/48/44
f 42/47/43 41/49/45 28/48/44
f 41/49/45 40/50/46 28/48/44
f 28/48/44 40/50/46 29/51/47
f 40/50/46 43/52/48 29/51/47
f 30/53/49 27/46/42 31/54/50
f 27/46/42 28/48/44 31/54/50
f 31/54/50 28/48/44 32/55/51
f 28/48/44 29/51/47 32/55/51
f 29/51/47 33/56/52 32/55/51
f 32/55/51 33/56/52 26/57/53
f 26/57/53 33/56/52 24/58/54
f 33/56/52 34/59/55 24/58/54
f 24/58/54 34/59/55 23/60/56
f 23/60/56 34/59/55 35/61/57
f 34/59/55 33/56/52 35/61/57
f 33/56/52 29/51/47 35/61/57
f 29/51/47 43/52/48 35/61/57
f 35/61/57 43/52/48 36/62/58
f 43/52/48 37/63/59 36/62/58
f 26/57/53 38/64/60 32/55/51
f 38/64/60 39/65/61 32/55/51
f 32/55/51 39/65/61 31/54/50
f 31/54/50 39/65/61 30/53/49
f 39/65/61 38/64/60 30/53/49
f 23/60/56 35/61/57 36/62/58
f 40/50/46 41/49/45 44/66/62
f 44/66/62 41/49/45 42/47/43
f 43/67/63 40/68/63 37/43/63
f 37/43/64 40/68/46 44/44/62
