# Blender 4.2.7 LTS
# www.blender.org
mtllib elevator3.mtl
o eleavtor
v 40.896667 -77.895882 -0.263464
v 34.914948 -48.810146 -0.263475
v 33.939682 -83.575020 -0.780935
v 11.638214 -51.543571 -0.780947
v 26.332474 -86.626884 -0.263447
v -17.132584 -54.621979 -0.263462
v 1.592834 -37.027245 -0.263474
v 24.837051 -35.196114 0.331871
v 26.527512 -48.810143 0.331877
v 14.434036 -51.172031 0.331879
v 32.541763 -83.070793 0.331894
v 37.873291 -76.622032 0.331892
v 6.404236 -37.027248 0.535006
v 0.324966 -53.905457 0.331883
v -10.533173 -38.592991 0.694490
v -8.452576 -53.905457 -0.263466
v -4.909073 -54.621983 0.331891
v 27.405258 -84.583473 0.331893
v 21.943710 -86.839195 -0.263454
v 24.739532 -84.344612 0.331901
v -26.430252 -38.592991 -0.263460
v 32.086609 -35.196121 -0.263479
v 40.896667 77.882591 -0.263532
v 33.939667 83.561729 -0.781007
v 11.638214 51.530289 -0.780985
v 26.332458 86.613625 -0.263523
v -8.452576 53.892178 -0.263501
v 0.324966 53.892178 0.331840
v 12.483444 51.530289 0.331839
v -17.132599 54.608704 -0.263511
v -4.909073 54.608704 0.331844
v 27.405243 84.570183 0.331820
v 32.541748 83.057503 0.331815
v 37.873291 76.608757 0.331814
v 26.527496 48.770336 0.331833
v 34.914932 48.770336 -0.263515
v 32.086609 35.182838 -0.263507
v 21.943710 86.825905 -0.263524
v 24.739517 84.304802 0.331816
v 6.404236 37.013973 0.331843
v -10.533188 38.579712 0.331852
v -26.430252 38.579716 -0.263499
v 24.837036 35.182842 0.331840
v 1.592834 37.013969 -0.263501
vn 0.0636 0.0131 -0.9979
vn -0.0013 -0.0104 -0.9999
vn 0.0243 0.0096 -0.9997
vn -0.0083 0.0055 -1.0000
vn -0.0334 -0.0245 -0.9991
vn -0.0083 -0.0011 -1.0000
vn -0.0000 -0.0000 -1.0000
vn 0.0132 0.0151 -0.9998
vn -0.0107 0.0171 -0.9998
vn 0.0818 0.0170 0.9965
vn 0.0406 0.0044 0.9992
vn 0.0723 0.0132 0.9973
vn 0.0343 0.0061 0.9994
vn 0.0025 -0.0039 1.0000
vn 0.2250 -0.3409 0.9128
vn 0.1320 -0.0360 0.9906
vn 0.1445 -0.0792 0.9863
vn 0.0089 -0.0121 0.9999
vn -0.0091 -0.0050 0.9999
vn -0.0436 0.3657 0.9297
vn -0.0620 0.0143 0.9980
vn -0.0566 0.2556 0.9651
vn -0.0536 0.0125 0.9985
vn -0.0480 0.2023 0.9781
vn 0.0357 -0.1704 0.9847
vn 0.0518 -0.3233 0.9449
vn 0.3874 -0.4633 0.7970
vn -0.0727 -0.1597 0.9845
vn -0.0301 -0.1063 0.9939
vn -0.0749 0.8816 0.4660
vn -0.0577 0.9358 0.3478
vn -0.0564 0.9388 0.3397
vn -0.0666 0.5807 -0.8114
vn 0.0636 -0.0131 -0.9979
vn 0.0242 -0.0096 -0.9997
vn -0.0013 0.0104 -0.9999
vn -0.0083 -0.0055 -1.0000
vn -0.0334 0.0245 -0.9991
vn -0.0083 0.0011 -1.0000
vn 0.0132 -0.0152 -0.9998
vn -0.0107 -0.0171 -0.9998
vn -0.0566 -0.2556 0.9651
vn -0.0448 -0.0116 0.9989
vn -0.0097 -0.0023 1.0000
vn -0.0299 -0.2762 0.9606
vn -0.0322 -0.5246 0.8507
vn -0.0000 -0.0000 1.0000
vn 0.0371 -0.0067 0.9993
vn -0.0536 -0.0125 0.9985
vn -0.0480 -0.2023 0.9781
vn 0.0356 0.1704 0.9847
vn 0.2250 0.3409 0.9128
vn 0.0518 0.3233 0.9449
vn 0.3874 0.4633 0.7970
vn 0.1319 0.0360 0.9906
vn 0.1445 0.0792 0.9863
vn 0.0343 -0.0061 0.9994
vn 0.0723 -0.0132 0.9973
vn 0.0818 -0.0170 0.9965
vn -0.0724 0.1588 0.9846
vn -0.0307 0.1042 0.9941
vn -0.0720 -0.7984 0.5978
vn -0.0632 -0.6359 -0.7692
vn -0.0539 -0.8983 0.4360
vt 0.113399 0.189775
vt 0.128667 0.178160
vt 0.126616 0.249340
vt 0.177433 0.243693
vt 0.145302 0.171873
vt 0.221413 0.238898
vt 0.240441 0.237406
vt 0.154987 0.171447
vt 0.132655 0.277152
vt 0.199423 0.273422
vt 0.260836 0.270119
vt 0.972841 0.605667
vt 0.954725 0.605667
vt 0.979905 0.573806
vt 0.958940 0.573806
vt 0.928633 0.568265
vt 0.973980 0.493675
vt 0.987311 0.508700
vt 0.994945 0.505716
vt 0.908579 0.601405
vt 0.893426 0.561872
vt 0.866194 0.597675
vt 0.826315 0.597675
vt 0.871321 0.561872
vt 0.849673 0.560167
vt 0.880323 0.560167
vt 0.961105 0.490052
vt 0.958485 0.485257
vt 0.977512 0.492397
vt 0.947433 0.484831
vt 0.954497 0.490692
vt 0.896616 0.601405
vt 0.188941 0.273422
vt 0.148606 0.277152
vt 0.113399 0.508380
vt 0.126616 0.448922
vt 0.128667 0.519995
vt 0.177433 0.454462
vt 0.145302 0.526282
vt 0.221413 0.459364
vt 0.240441 0.460749
vt 0.154987 0.526708
vt 0.132655 0.421110
vt 0.199423 0.424840
vt 0.260836 0.428036
vt 0.871321 0.814092
vt 0.826315 0.778289
vt 0.893426 0.814092
vt 0.866194 0.778289
vt 0.908579 0.774666
vt 0.923733 0.808551
vt 0.954725 0.770297
vt 0.849673 0.815797
vt 0.880323 0.815797
vt 0.961105 0.885912
vt 0.973980 0.882395
vt 0.958485 0.890707
vt 0.977512 0.883568
vt 0.987311 0.867264
vt 0.994945 0.870248
vt 0.958940 0.802158
vt 0.979905 0.802158
vt 0.972841 0.770297
vt 0.947433 0.891240
vt 0.954497 0.885379
vt 0.896616 0.774666
vt 0.148606 0.421110
vt 0.188941 0.424840
s 1
usemtl F-15
f 1/1/1 3/2/2 2/3/3
f 2/3/3 3/2/2 4/4/4
f 3/2/2 5/5/5 4/4/4
f 4/4/4 5/5/5 16/6/6
f 16/6/6 5/5/5 6/7/7
f 5/5/5 19/8/7 6/7/7
f 2/3/3 4/4/4 22/9/8
f 22/9/8 4/4/4 7/10/9
f 4/4/4 16/6/6 7/10/9
f 7/10/9 16/6/6 21/11/7
f 22/12/10 8/13/11 2/14/12
f 2/14/12 8/13/11 9/15/13
f 8/13/11 10/16/14 9/15/13
f 10/16/14 11/17/15 9/15/13
f 11/17/15 12/18/16 9/15/13
f 12/18/16 1/19/17 9/15/13
f 9/15/13 1/19/17 2/14/12
f 8/13/11 13/20/18 10/16/14
f 10/16/14 13/20/18 14/21/19
f 13/20/18 15/22/20 14/21/19
f 15/22/20 21/23/21 14/21/19
f 14/21/19 21/23/21 16/24/22
f 6/25/23 17/26/24 16/24/22
f 16/24/22 17/26/24 14/21/19
f 17/26/24 18/27/25 14/21/19
f 14/21/19 18/27/25 10/16/14
f 10/16/14 18/27/25 11/17/15
f 18/27/25 5/28/26 11/17/15
f 5/28/26 3/29/27 11/17/15
f 11/17/15 3/29/27 12/18/16
f 3/29/27 1/19/17 12/18/16
f 5/28/26 18/27/25 19/30/28
f 18/27/25 20/31/29 19/30/28
f 19/30/28 20/31/29 6/25/23
f 6/25/23 20/31/29 17/26/24
f 20/31/29 18/27/25 17/26/24
f 21/23/21 15/22/20 7/32/30
f 15/22/20 13/20/31 7/32/30
f 7/10/30 13/33/31 22/9/32
f 13/33/33 8/34/33 22/9/33
f 23/35/34 36/36/35 24/37/36
f 36/36/35 25/38/37 24/37/36
f 24/37/36 25/38/37 26/39/38
f 25/38/37 27/40/39 26/39/38
f 27/40/39 30/41/7 26/39/38
f 26/39/38 30/41/7 38/42/7
f 36/36/35 37/43/40 25/38/37
f 37/43/40 44/44/41 25/38/37
f 25/38/37 44/44/41 27/40/39
f 44/44/41 42/45/7 27/40/39
f 27/46/42 42/47/43 28/48/44
f 42/47/43 41/49/45 28/48/44
f 41/49/45 40/50/46 28/48/44
f 28/48/44 40/50/46 29/51/47
f 40/50/46 43/52/48 29/51/47
f 30/53/49 27/46/42 31/54/50
f 27/46/42 28/48/44 31/54/50
f 31/54/50 28/48/44 32/55/51
f 28/48/44 29/51/47 32/55/51
f 29/51/47 33/56/52 32/55/51
f 32/55/51 33/56/52 26/57/53
f 26/57/53 33/56/52 24/58/54
f 33/56/52 34/59/55 24/58/54
f 24/58/54 34/59/55 23/60/56
f 23/60/56 34/59/55 35/61/57
f 34/59/55 33/56/52 35/61/57
f 33/56/52 29/51/47 35/61/57
f 29/51/47 43/52/48 35/61/57
f 35/61/57 43/52/48 36/62/58
f 43/52/48 37/63/59 36/62/58
f 26/57/53 38/64/60 32/55/51
f 38/64/60 39/65/61 32/55/51
f 32/55/51 39/65/61 31/54/50
f 31/54/50 39/65/61 30/53/49
f 39/65/61 38/64/60 30/53/49
f 23/60/56 35/61/57 36/62/58
f 40/50/46 41/49/45 44/66/62
f 44/66/62 41/49/45 42/47/43
f 43/67/63 40/68/63 37/43/63
f 37/43/64 40/68/46 44/44/62
